<?xml version="1.0" encoding="UTF-8"?>
<svg id="Layer_1" data-name="Layer 1" xmlns="http://www.w3.org/2000/svg" viewBox="0 0 322.15 188.13">
  <defs>
    <style>
      .cls-1 {
        fill: #929497;
      }

      .cls-1, .cls-2 {
        stroke: #404041;
        stroke-miterlimit: 10;
        stroke-width: .1px;
      }

      .cls-3 {
        fill: #ec1e24;
      }

      .cls-2, .cls-4 {
        fill: #b11f24;
      }
    </style>
  </defs>
  <g>
    <path d="M32,145.71l-14,42.4H0L45.8,53.31h21l51.66,134.8h-24.26l-14.4-42.4H32ZM76.2,132.11l-13.2-38.8c-3-8.8-5-16.8-7-24.6h-.4c-2,8-4.2,16.2-6.8,24.4l-13.2,39h40.6Z"/>
    <path d="M156.12,145.71l-14,42.4h-23.66l51.46-134.8h21l46,134.8h-18.6l-14.4-42.4h-47.8ZM200.32,132.11l-13.2-38.8c-3-8.8-5-16.8-7-24.6h-.4c-2,8-4.2,16.2-6.8,24.4l-13.2,39h40.6Z"/>
    <path d="M190.87,53.3c9.53-4.95,21.09-10.12,34.2-14.45,23.74-7.84,42.6-7.52,57.5-.04,15.09,7.42,26.98,21.09,34.29,43.25,7.39,22.37,6.97,42.8-.83,59.36-7.74,16.76-25.21,30.2-50.09,38.42-11.78,3.89-21.86,6.54-30.55,8.28l-44.52-134.83ZM247.42,169.04c4.45-.57,10.59-2.37,17.05-4.5,35.33-11.67,47.53-39.15,35.31-76.16-10.49-32.4-34.36-47.29-69.32-35.75-8.55,2.82-14.74,5.77-18.77,8.23l35.72,108.19Z"/>
  </g>
  <path class="cls-3" d="M187.05,17.36s.03-.05,0-.05-.03.05,0,.05h0Z"/>
  <g>
    <path class="cls-4" d="M186.93,17.04c-.55-1.57-1.73-4.93-2.02-5.76"/>
    <path class="cls-3" d="M186.95,17.03c-.28-.8-.56-1.6-.84-2.4s-.58-1.66-.88-2.49c-.1-.29-.2-.58-.31-.87-.01-.03-.06-.02-.05.01.22.62.44,1.24.66,1.87.31.88.62,1.76.93,2.64.15.42.29.84.44,1.25.01.03.06.02.05-.01h0Z"/>
  </g>
  <g>
    <path class="cls-4" d="M185.33,12.66c-.27-.74-.56-1.48-.86-2.2"/>
    <path class="cls-3" d="M185.35,12.66c-.21-.58-.43-1.15-.67-1.72-.07-.16-.13-.32-.2-.48-.01-.03-.06-.02-.05.01.24.57.47,1.14.68,1.72.06.16.12.32.18.49.01.03.06.02.05-.01h0Z"/>
  </g>
  <g>
    <path class="cls-4" d="M184.46,10.46c-.43-1.02-.8-2.11-.89-3.2"/>
    <path class="cls-3" d="M184.49,10.45c-.33-.8-.63-1.62-.79-2.47-.05-.24-.08-.48-.1-.72,0-.03-.05-.03-.05,0,.08.86.31,1.7.62,2.51.09.23.18.46.28.69.01.03.06.02.05-.01h0Z"/>
  </g>
  <path class="cls-2" d="M220.52,30.56c-.55-1.3-1.07-2.62-1.58-3.93-.36-.91-.81-1.78-1.13-2.71-.2-.59-.35-1.19-.63-1.75-.81-1.67-1.63-3.35-2.4-5.04-.6-1.31-1.13-2.65-1.75-3.96-.64-1.35-1.12-2.77-1.75-4.13-.36-.77-.84-1.47-1.25-2.2-.49-.87-.94-1.83-1.36-2.73-1-2.12-1.73-3.88-4.42-4.05-1.29-.08-2.38.64-3.55,1.09-1.47.57-3,.96-4.49,1.47-1.55.52-3.02,1.27-4.55,1.85-2.08.79-4.16,1.58-6.21,2.43-1.89.78-2.32,2.68-2.47,4.52-.04.44.15.75.23,1.16s0,.84.06,1.25c.05.35.17.68.29,1.01,1,2.84,2.16,5.64,3.12,8.49.58,1.72,1.01,3.48,1.63,5.19.9,2.49,1.94,4.92,2.86,7.4.58,1.58,1.11,3.19,1.66,4.79"/>
  <path class="cls-3" d="M193.67,30.55c-.18-.5-.37-1-.56-1.5-.24-.64-.48-1.28-.73-1.92-.09-.23-.18-.46-.28-.69,0-.02-.05,0-.04.01.21.49.4.99.59,1.49.24.64.49,1.28.72,1.92.09.23.17.47.26.7,0,.02.05,0,.04-.01h0Z"/>
  <path class="cls-3" d="M193.63,30.57c-.37-1-.77-1.99-1.19-2.97-.09-.2-.18-.4-.26-.61-.04-.09-.08-.18-.12-.26-.02-.05-.04-.1-.06-.15,0-.02-.01-.04-.01-.06,0,0,0-.01,0-.02,0,0,0,0,0,0,0,0-.03-.04-.03,0,0,0,.02.02.02.03.01.03.03.05.04.08.17.36.31.74.45,1.11,0,.01.05,0,.04-.01-.1-.27-.2-.57-.38-.8,0,0-.05,0-.04.01.11.31.24.61.36.91l.24.58.37.89.35.84.12.29.04.09s.01.04.02.05c0,0,0,0,0,0,0,.01.05,0,.04-.01l-.15-.35-.34-.81-.38-.91-.27-.64c-.11-.26-.22-.52-.32-.79-.02-.06-.04-.11-.06-.17h-.04c.18.25.27.54.37.81h.04c-.14-.37-.27-.74-.43-1.09-.01-.03-.03-.06-.05-.1,0-.01-.02-.03-.03-.04-.03-.02-.05,0-.05.03,0,.08.04.15.07.22.09.2.17.39.26.59.2.47.4.94.6,1.41.25.61.49,1.22.72,1.84,0,.01.05,0,.04-.01Z"/>
  <path class="cls-3" d="M191.05,24.09c.05.1.09.21.14.31.02.03.03.06.05.09,0,0,0,.02.01.02.01,0,.04,0,.04-.02,0-.02-.02-.06-.03-.08-.03-.07-.06-.15-.09-.22-.13-.33-.26-.65-.4-.98-.26-.63-.53-1.26-.79-1.89-.04-.1-.08-.2-.13-.3,0-.01-.05,0-.04.01.28.66.56,1.32.83,1.98.15.36.3.71.44,1.07.05.13.11.26.15.4,0,0,0,.02,0,.02,0,0,.04-.01.04-.01,0,0,0,0,0,0-.01-.03-.03-.05-.04-.08-.05-.1-.09-.2-.14-.29,0-.01-.01-.03-.02-.04,0-.01-.05,0-.04.01h0Z"/>
  <path class="cls-3" d="M188.8,18.4c-.04-.11-.09-.22-.1-.33s-.04-.21-.08-.32h-.04c.1.27.2.53.3.78h.04c-.27-.7-.53-1.39-.79-2.08h-.04c.25.63.48,1.25.69,1.88h.04c-.33-.83-.64-1.65-.93-2.49h-.04c.29.8.58,1.59.87,2.38h.04c-.32-.84-.65-1.66-.97-2.48-.43-1.09-.86-2.19-1.28-3.29-.14-.36-.28-.72-.4-1.09h-.04c.36.86.69,1.72,1.02,2.57.44,1.12.88,2.24,1.3,3.37.14.37.28.74.4,1.12h.04c-.31-.85-.63-1.67-.96-2.5-.41-1.05-.82-2.11-1.23-3.16-.15-.39-.3-.78-.45-1.18h-.04c.34.82.64,1.65.94,2.47.39,1.05.78,2.09,1.17,3.14.15.39.3.79.45,1.18,0,.02.05,0,.04-.01-.33-.86-.65-1.72-.98-2.58-.4-1.06-.81-2.12-1.21-3.18-.16-.41-.31-.82-.46-1.24,0-.02-.05,0-.04.01.31.86.64,1.72.97,2.57.4,1.06.81,2.12,1.21,3.18.16.41.32.83.47,1.24h.04c-.33-.83-.63-1.66-.94-2.49-.39-1.05-.78-2.09-1.18-3.14-.15-.39-.3-.78-.46-1.16,0-.02-.05,0-.04.01.31.84.63,1.66.96,2.49.41,1.05.82,2.11,1.23,3.16.15.39.3.78.45,1.18,0,.02.05,0,.04-.01-.1-.32-.22-.64-.33-.95-.19-.52-.39-1.04-.59-1.56-.43-1.13-.88-2.26-1.33-3.39-.15-.39-.31-.77-.47-1.16,0-.02-.05,0-.04.01.1.31.22.62.34.93.19.51.39,1.01.58,1.51.43,1.1.86,2.2,1.3,3.3.15.37.29.74.44,1.11,0,.02.05,0,.04-.01-.29-.79-.57-1.58-.87-2.36,0-.02-.05,0-.04.01.29.83.6,1.66.93,2.47,0,.02.05,0,.04-.01-.21-.63-.44-1.25-.69-1.86,0-.02-.05,0-.04.01.26.69.52,1.38.79,2.07,0,.02.05,0,.04-.01l-.3-.77s-.05,0-.04.01c.03.11.06.21.08.32.02.11.06.22.1.33,0,.02.05,0,.04-.01h0Z"/>
  <path class="cls-3" d="M210.77,9.89c-.04-.11-.09-.22-.1-.33s-.04-.21-.08-.32h-.04c.1.27.2.53.3.78h.04c-.27-.7-.53-1.39-.79-2.08h-.04c.25.63.48,1.25.69,1.88h.04c-.33-.83-.64-1.65-.93-2.49h-.04c.29.8.58,1.59.87,2.38h.04c-.32-.84-.65-1.66-.97-2.48-.43-1.09-.86-2.19-1.28-3.29-.14-.36-.28-.72-.4-1.09h-.04c.36.86.69,1.72,1.02,2.57.44,1.12.88,2.24,1.3,3.37.14.37.28.74.4,1.12h.04c-.31-.85-.63-1.67-.96-2.5-.41-1.05-.82-2.11-1.23-3.16-.15-.39-.3-.78-.45-1.18h-.04c.34.82.64,1.65.94,2.47.39,1.05.78,2.09,1.17,3.14.15.39.3.79.45,1.18,0,.02.05,0,.04-.01-.33-.86-.65-1.72-.98-2.58-.4-1.06-.81-2.12-1.21-3.18-.16-.41-.31-.82-.46-1.24,0-.02-.05,0-.04.01.31.86.64,1.72.97,2.57.4,1.06.81,2.12,1.21,3.18.16.41.32.83.47,1.24h.04c-.33-.83-.63-1.66-.94-2.49-.39-1.05-.78-2.09-1.18-3.14-.15-.39-.3-.78-.46-1.16,0-.02-.05,0-.04.01.31.84.63,1.66.96,2.49.41,1.05.82,2.11,1.23,3.16.15.39.3.78.45,1.18,0,.02.05,0,.04-.01-.1-.32-.22-.64-.33-.95-.19-.52-.39-1.04-.59-1.56-.43-1.13-.88-2.26-1.33-3.39-.15-.39-.31-.77-.47-1.16,0-.02-.05,0-.04.01.1.31.22.62.34.93.19.51.39,1.01.58,1.51.43,1.1.86,2.2,1.3,3.3.15.37.29.74.44,1.11,0,.02.05,0,.04-.01-.29-.79-.57-1.58-.87-2.36,0-.02-.05,0-.04.01.29.83.6,1.66.93,2.47,0,.02.05,0,.04-.01-.21-.63-.44-1.25-.69-1.86,0-.02-.05,0-.04.01.26.69.52,1.38.79,2.07,0,.02.05,0,.04-.01l-.3-.77s-.05,0-.04.01c.03.11.06.21.08.32.02.11.06.22.1.33,0,.02.05,0,.04-.01h0Z"/>
  <path class="cls-3" d="M212.91,15.69c.05.1.09.21.14.31.02.03.03.06.05.09,0,0,0,.02.01.02.01,0,.04,0,.04-.02,0-.02-.02-.06-.03-.08-.03-.07-.06-.15-.09-.22-.13-.33-.26-.65-.4-.98-.26-.63-.53-1.26-.79-1.89-.04-.1-.08-.2-.13-.3,0-.01-.05,0-.04.01.28.66.56,1.32.83,1.98.15.36.3.71.44,1.07.05.13.11.26.15.4,0,0,0,.02,0,.02,0,0,.04-.01.04-.01,0,0,0,0,0,0-.01-.03-.03-.05-.04-.08-.05-.1-.09-.2-.14-.29,0-.01-.01-.03-.02-.04,0-.01-.05,0-.04.01h0Z"/>
  <path class="cls-3" d="M215.45,22.18c-.37-1-.77-1.99-1.19-2.97-.09-.2-.18-.4-.26-.61-.04-.09-.08-.18-.12-.26-.02-.05-.04-.1-.06-.15,0-.02-.01-.04-.01-.06,0,0,0-.01,0-.02,0,0,0,0,0,0,0,0-.03-.04-.03,0,0,0,.02.02.02.03.01.03.03.05.04.08.17.36.31.74.45,1.11,0,.01.05,0,.04-.01-.1-.27-.2-.57-.38-.8,0,0-.05,0-.04.01.11.31.24.61.36.91l.24.58.37.89.35.84.12.29.04.09s.01.04.02.05c0,0,0,0,0,0,0,.01.05,0,.04-.01l-.15-.35-.34-.81-.38-.91-.27-.64c-.11-.26-.22-.52-.32-.79-.02-.06-.04-.11-.06-.17h-.04c.18.25.27.54.37.81h.04c-.14-.37-.27-.74-.43-1.09-.01-.03-.03-.06-.05-.1,0-.01-.02-.03-.03-.04-.03-.02-.05,0-.05.03,0,.08.04.15.07.22.09.2.17.39.26.59.2.47.4.94.6,1.41.25.61.49,1.22.72,1.84,0,.01.05,0,.04-.01Z"/>
  <path class="cls-1" d="M190.6,49.1c-.15.87-1.12.86-1.63,1.42-.4.44-.62,1.14-.37,1.77.24.61.88.97,1.46,1.02s1.14-.16,1.67-.37c8.91-3.4,17.8-6.83,26.69-10.29,4.28-1.67,8.56-3.35,12.73-5.29.85-.39,1.83-1.11,1.58-2.16-.18-.75-.97-1.21-1.65-1.18s-1.27.42-1.82.8c-.49-1.12-.98-2.24-1.48-3.37-.29-.65-.69-2.13-1.26-2.55-.8-.59-2.47.49-3.19.75-10,3.68-19.86,7.74-30.02,10.96-1.22.38-2.6.56-3.62,1.41-1.27,1.05-.64,3.07-.21,4.62.36,1.28,1.11,2.71,2.45,2.23,10.75-3.86,21.39-8.02,32.12-11.92,1.7-.62,3.45-1.1,5.14-1.74"/>
</svg>