<?xml version="1.0" encoding="UTF-8"?>
<svg id="Layer_1" data-name="Layer 1" xmlns="http://www.w3.org/2000/svg" viewBox="0 0 90.86 88.27">
  <defs>
    <style>
      .cls-1 {
        fill: #929497;
      }

      .cls-1, .cls-2 {
        stroke: #404041;
        stroke-miterlimit: 10;
        stroke-width: .1px;
      }

      .cls-3 {
        fill: #ec1e24;
      }

      .cls-2 {
        fill: #b11f24;
      }
    </style>
  </defs>
  <path class="cls-2" d="M77.27,72.13c-.11-2.92-.13-5.85-.16-8.77-.02-2.03-.26-4.05-.19-6.08.04-1.28.2-2.57.08-3.86-.34-3.84-.68-7.68-.92-11.53-.18-2.98-.23-5.97-.47-8.95-.25-3.09-.12-6.2-.34-9.29-.13-1.75-.54-3.46-.8-5.19-.3-2.04-.47-4.23-.63-6.28-.37-4.85-.48-8.78-5.59-11.1-2.45-1.11-5.11-.52-7.71-.52-3.29,0-6.55-.35-9.83-.48-3.41-.14-6.81.22-10.22.21-4.63-.01-9.26-.02-13.89.11-4.25.11-6.5,3.46-8.16,6.91-.4.83-.27,1.56-.42,2.42-.15.85-.63,1.63-.81,2.47-.15.71-.17,1.44-.19,2.17-.15,6.23.02,12.5-.25,18.73-.16,3.75-.62,7.49-.69,11.24-.1,5.48.12,10.96.06,16.44-.04,3.49-.21,6.99-.33,10.48"/>
  <path class="cls-3" d="M23.99,55.25c.02-.87.02-1.75.03-2.62,0-1.12.01-2.23,0-3.35,0-.4,0-.8-.03-1.2,0-.02-.04,0-.04.01.04.87.03,1.74.03,2.61,0,1.11,0,2.22-.02,3.33,0,.41,0,.81-.02,1.22,0,.02.04.01.04,0h0Z"/>
  <path class="cls-3" d="M23.9,55.25c.03-1.75-.02-3.5-.1-5.25-.02-.35-.04-.71-.06-1.06,0-.16-.02-.32-.03-.48,0-.08,0-.16,0-.25,0-.03,0-.07.02-.1,0,0,0-.02,0-.03,0,0-.02,0-.03,0,0,0,.02.05.02.06,0,.05.01.1.02.15.05.64.04,1.3.04,1.94,0,.01.04,0,.04-.01,0-.47.04-.99-.12-1.44,0-.01-.04,0-.04.01-.02.88.03,1.76.06,2.63l.1,3.05c0,.26.02.51.03.77,0,.01.04,0,.04-.01-.02-.68-.05-1.37-.07-2.05l-.09-2.72c-.02-.56-.04-1.12-.03-1.68h-.04c.16.46.13.98.12,1.45h.04c0-.64,0-1.27-.04-1.9,0-.06,0-.12-.02-.18,0-.02,0-.07-.02-.09-.03-.04-.06,0-.07.03-.03.1-.03.22-.02.33.02.35.04.7.06,1.05.05.84.08,1.69.11,2.53.03,1.08.04,2.15.02,3.23,0,.01.04,0,.04-.01Z"/>
  <path class="cls-3" d="M23.76,43.9c.01.19.03.37.04.56,0,.06.01.11.02.17,0,.03.03.07.06.02.02-.03,0-.11,0-.14,0-.13,0-.26,0-.38,0-.57-.03-1.14-.05-1.71-.04-1.11-.08-2.22-.12-3.33,0-.18-.01-.36-.02-.54,0-.01-.04,0-.04.01.05,1.17.09,2.33.13,3.5.02.63.04,1.26.05,1.89,0,.23.02.47,0,.69,0,0,0,.03,0,.03,0,0,.04-.01.04,0,0,0,0,0,0,0,0,0,0-.01,0-.02,0-.05-.01-.1-.02-.15-.02-.18-.03-.35-.04-.53,0-.02,0-.05,0-.07,0-.01-.04,0-.04.01h0Z"/>
  <path class="cls-3" d="M23.59,33.92c0-.19,0-.38.04-.56s.07-.35.08-.53h-.04c0,.45,0,.9,0,1.35h.04c0-1.21,0-2.41,0-3.61h-.04c.03,1.09.01,2.17-.04,3.25h.04c-.03-1.44-.03-2.88.03-4.31h-.04c-.02,1.37-.04,2.74-.07,4.11h.04c0-1.45-.03-2.9-.05-4.35-.02-1.91-.05-3.82-.04-5.73,0-.63,0-1.27.03-1.9h-.04c.06,1.51.06,3.01.08,4.52.02,1.96.03,3.92.01,5.88,0,.64,0,1.28-.06,1.92h.04c.03-1.45,0-2.9,0-4.35-.01-1.84-.03-3.68-.03-5.53,0-.68,0-1.37,0-2.05h-.04c.05,1.45.02,2.89,0,4.33-.01,1.81-.03,3.63-.05,5.44,0,.68-.01,1.36,0,2.04,0,.02.04.01.04,0,0-1.49,0-2.98,0-4.48,0-1.86,0-3.71.01-5.57,0-.72,0-1.44.02-2.15,0-.02-.04-.01-.04,0-.03,1.49-.03,2.98-.03,4.46,0,1.86,0,3.72,0,5.58,0,.72,0,1.44,0,2.16h.04c-.02-1.46,0-2.91.02-4.36.02-1.82.04-3.63.04-5.45,0-.67,0-1.34-.02-2.01,0-.01-.04,0-.04,0-.03,1.45,0,2.9,0,4.35.01,1.84.03,3.68.03,5.53,0,.68,0,1.37,0,2.05,0,.02.04.01.04,0,.05-.55.05-1.1.05-1.64.01-.9.01-1.81.01-2.71,0-1.98-.02-3.96-.05-5.94-.01-.67-.02-1.35-.05-2.02,0-.01-.04,0-.04,0-.03.54-.02,1.08-.03,1.62,0,.89,0,1.77.01,2.66.02,1.92.04,3.84.06,5.75,0,.65.02,1.3.02,1.95,0,.02.04.01.04,0,.03-1.37.05-2.73.07-4.1,0-.02-.04-.01-.04,0-.05,1.44-.06,2.87-.03,4.31,0,.01.04,0,.04,0,.05-1.08.06-2.16.04-3.24,0-.01-.04,0-.04,0-.01,1.2-.01,2.41,0,3.61,0,.02.04.01.04,0v-1.35s-.05-.01-.05,0c-.01.18-.04.35-.08.53-.04.18-.04.37-.04.56,0,.02.04.01.04,0h0Z"/>
  <path class="cls-3" d="M68.75,33.75c0-.19,0-.38.04-.56s.07-.35.08-.53h-.04c0,.45,0,.9,0,1.35h.04c0-1.21,0-2.41,0-3.61h-.04c.03,1.09.01,2.17-.04,3.25h.04c-.03-1.44-.03-2.88.03-4.31h-.04c-.02,1.37-.04,2.74-.07,4.11h.04c0-1.45-.03-2.9-.05-4.35-.02-1.91-.05-3.82-.04-5.73,0-.63,0-1.27.03-1.9h-.04c.06,1.51.06,3.01.08,4.52.02,1.96.03,3.92.01,5.88,0,.64,0,1.28-.06,1.92h.04c.03-1.45,0-2.9,0-4.35-.01-1.84-.03-3.68-.03-5.53,0-.68,0-1.37,0-2.05h-.04c.05,1.45.02,2.89,0,4.33-.01,1.81-.03,3.63-.05,5.44,0,.68-.01,1.36,0,2.04,0,.02.04.01.04,0,0-1.49,0-2.98,0-4.48,0-1.86,0-3.71.01-5.57,0-.72,0-1.44.02-2.15,0-.02-.04-.01-.04,0-.03,1.49-.03,2.98-.03,4.46,0,1.86,0,3.72,0,5.58,0,.72,0,1.44,0,2.16h.04c-.02-1.46,0-2.91.02-4.36.02-1.82.04-3.63.04-5.45,0-.67,0-1.34-.02-2.01,0-.01-.04,0-.04,0-.03,1.45,0,2.9,0,4.35.01,1.84.03,3.68.03,5.53,0,.68,0,1.37,0,2.05,0,.02.04.01.04,0,.05-.55.05-1.1.05-1.64.01-.9.01-1.81.01-2.71,0-1.98-.02-3.96-.05-5.94-.01-.67-.02-1.35-.05-2.02,0-.01-.04,0-.04,0-.03.54-.02,1.08-.03,1.62,0,.89,0,1.77.01,2.66.02,1.92.04,3.84.06,5.75,0,.65.02,1.3.02,1.95,0,.02.04.01.04,0,.03-1.37.05-2.73.07-4.1,0-.02-.04-.01-.04,0-.05,1.44-.06,2.87-.03,4.31,0,.01.04,0,.04,0,.05-1.08.06-2.16.04-3.24,0-.01-.04,0-.04,0-.01,1.2-.01,2.41,0,3.61,0,.02.04.01.04,0,0-.45,0-.9,0-1.35,0-.02-.04-.01-.04,0-.01.18-.04.35-.08.53-.04.18-.04.37-.04.56,0,.02.04.01.04,0h0Z"/>
  <path class="cls-3" d="M68.66,43.84c.01.19.03.37.04.56,0,.06.01.11.02.17,0,.03.03.07.06.02.02-.03,0-.11,0-.14,0-.13,0-.26,0-.38,0-.57-.03-1.14-.05-1.71-.04-1.11-.08-2.22-.12-3.33,0-.18-.01-.36-.02-.54,0-.01-.04,0-.04.01.05,1.17.09,2.33.13,3.5.02.63.04,1.26.05,1.89,0,.23.02.47,0,.69,0,0,0,.03,0,.03,0,0,.04-.01.04,0,0,0,0,0,0,0,0,0,0-.01,0-.02,0-.05-.01-.1-.02-.15-.02-.18-.03-.35-.04-.53,0-.02,0-.05,0-.07,0-.01-.04,0-.04.01h0Z"/>
  <path class="cls-3" d="M68.72,55.19c.03-1.75-.02-3.5-.1-5.25-.02-.35-.04-.71-.06-1.06,0-.16-.02-.32-.03-.48,0-.08,0-.16,0-.25,0-.03,0-.07.02-.1,0,0,0-.02,0-.03,0,0-.02,0-.03,0,0,0,.02.05.02.06,0,.05.01.1.02.15.05.64.04,1.3.04,1.94,0,.01.04,0,.04-.01,0-.47.04-.99-.12-1.44,0-.01-.04,0-.04.01-.02.88.03,1.76.06,2.63l.1,3.05c0,.26.02.51.03.77,0,.01.04,0,.04-.01-.02-.68-.05-1.37-.07-2.05l-.09-2.72c-.02-.56-.04-1.12-.03-1.68h-.04c.16.46.13.98.12,1.45h.04c0-.64,0-1.27-.04-1.9,0-.06,0-.12-.02-.18,0-.02,0-.07-.02-.09-.03-.04-.06,0-.07.03-.03.1-.03.22-.02.33.02.35.04.7.06,1.05.05.84.08,1.69.11,2.53.03,1.08.04,2.15.02,3.23,0,.01.04,0,.04-.01Z"/>
  <path class="cls-1" d="M5.81,81.72c-.85,1.23-2.59.67-3.88,1.21-1.02.43-1.9,1.38-1.88,2.47.02,1.08.9,1.99,1.92,2.4s2.15.42,3.24.42c18.28.01,36.56-.04,54.84-.14,8.81-.05,17.63-.12,26.43-.65,1.78-.11,4.04-.63,4.31-2.36.2-1.25-.9-2.41-2.14-2.76-1.24-.35-2.56-.1-3.82.16-.11-1.99-.23-3.99-.34-5.98-.07-1.16.22-3.64-.51-4.61-1.03-1.36-4.76-.7-6.23-.71-20.42-.21-40.86.23-61.27-.78-2.45-.12-5.05-.66-7.46.04-2.99.86-3.25,4.3-3.54,6.92-.23,2.15.12,4.77,2.87,4.82,21.89.38,43.79.24,65.68.55,3.46.05,6.93.34,10.39.33"/>
</svg>